<svg width="17" height="216" viewBox="0 0 17 216" fill="none" xmlns="http://www.w3.org/2000/svg">
<path d="M16 207.42L0.599999 205.506V203.042L16 204.934V207.42ZM12.48 215.56H10.082L10.082 201.348H12.48V215.56ZM16 213.118L0.599999 211.204L0.599999 208.74L16 210.654V213.118ZM6.518 214.812H4.12L4.12 200.622L6.518 200.6L6.518 214.812ZM16 198.34H0.599999V194.776H16V198.34ZM11.182 191.803H8.432V185.577H11.182L11.182 191.803ZM16 182.635H0.599999L0.599999 175.111C0.599999 173.175 0.966666 171.723 1.7 170.755C2.43333 169.772 3.40133 169.281 4.604 169.281C5.41067 169.281 6.11467 169.479 6.716 169.875C7.30267 170.271 7.75733 170.814 8.08 171.503C8.40267 172.192 8.564 172.984 8.564 173.879L7.662 173.461C7.662 172.493 7.82333 171.635 8.146 170.887C8.454 170.139 8.916 169.56 9.532 169.149C10.148 168.724 10.9033 168.511 11.798 168.511C13.118 168.511 14.152 169.032 14.9 170.073C15.6333 171.114 16 172.647 16 174.671V182.635ZM13.316 179.093V174.935C13.316 174.011 13.1693 173.314 12.876 172.845C12.568 172.361 12.084 172.119 11.424 172.119C10.7787 172.119 10.302 172.361 9.994 172.845C9.67133 173.314 9.51 174.011 9.51 174.935V179.357H6.914V175.551C6.914 174.686 6.76733 174.026 6.474 173.571C6.166 173.102 5.704 172.867 5.088 172.867C4.48667 172.867 4.03933 173.102 3.746 173.571C3.438 174.026 3.284 174.686 3.284 175.551V179.093H13.316ZM6.804 162.535V155.121H9.576V162.535H6.804ZM13.14 162.271V153.889H16V165.813H0.599999L0.599999 154.175H3.46V162.271H13.14ZM16 151.053H0.599999L0.599999 147.489H13.096V139.767H16V151.053ZM16 137.776H0.599999L0.599999 134.212H13.096L13.096 126.49H16L16 137.776ZM16 124.498H0.599999L0.599999 117.502C0.599999 115.83 0.922666 114.356 1.568 113.08C2.19867 111.804 3.086 110.807 4.23 110.088C5.374 109.37 6.73067 109.01 8.3 109.01C9.85467 109.01 11.2113 109.37 12.37 110.088C13.514 110.807 14.4087 111.804 15.054 113.08C15.6847 114.356 16 115.83 16 117.502V124.498ZM13.074 120.934V117.678C13.074 116.652 12.8833 115.764 12.502 115.016C12.106 114.254 11.5487 113.667 10.83 113.256C10.1113 112.831 9.268 112.618 8.3 112.618C7.31733 112.618 6.474 112.831 5.77 113.256C5.05133 113.667 4.50133 114.254 4.12 115.016C3.724 115.764 3.526 116.652 3.526 117.678V120.934H13.074ZM16.264 98.8424C16.264 100.06 16.066 101.189 15.67 102.23C15.274 103.257 14.7167 104.152 13.998 104.914C13.2793 105.662 12.436 106.249 11.468 106.674C10.5 107.085 9.444 107.29 8.3 107.29C7.156 107.29 6.1 107.085 5.132 106.674C4.164 106.249 3.32067 105.655 2.602 104.892C1.88333 104.13 1.326 103.235 0.929999 102.208C0.533999 101.182 0.336 100.067 0.336 98.8644C0.336 97.6471 0.533999 96.5324 0.929999 95.5204C1.326 94.4938 1.88333 93.6064 2.602 92.8584C3.32067 92.0958 4.164 91.5018 5.132 91.0764C6.08533 90.6511 7.14133 90.4384 8.3 90.4384C9.444 90.4384 10.5073 90.6511 11.49 91.0764C12.458 91.5018 13.3013 92.0958 14.02 92.8584C14.724 93.6064 15.274 94.4938 15.67 95.5204C16.066 96.5324 16.264 97.6398 16.264 98.8424ZM13.228 98.8644C13.228 98.1751 13.1107 97.5444 12.876 96.9724C12.6413 96.3858 12.304 95.8724 11.864 95.4324C11.424 94.9924 10.9033 94.6551 10.302 94.4204C9.70067 94.1711 9.03333 94.0464 8.3 94.0464C7.56667 94.0464 6.89933 94.1711 6.298 94.4204C5.69667 94.6551 5.176 94.9924 4.736 95.4324C4.296 95.8578 3.95867 96.3638 3.724 96.9504C3.48933 97.5371 3.372 98.1751 3.372 98.8644C3.372 99.5538 3.48933 100.192 3.724 100.778C3.95867 101.35 4.296 101.856 4.736 102.296C5.176 102.736 5.69667 103.081 6.298 103.33C6.89933 103.565 7.56667 103.682 8.3 103.682C9.01867 103.682 9.686 103.565 10.302 103.33C10.9033 103.081 11.424 102.744 11.864 102.318C12.304 101.878 12.6413 101.365 12.876 100.778C13.1107 100.192 13.228 99.5538 13.228 98.8644ZM16 87.7599H0.599999V84.8119L11.688 75.7259V77.1559H0.599999V73.6359H16V76.5619L4.912 85.6699L4.912 84.2399H16V87.7599ZM16 72.0164L0.599999 65.1524L0.599999 61.6324L16 54.7464V58.4864L2.404 64.1184L2.404 62.7104L16 68.3644L16 72.0164ZM12.7 68.5844L9.994 67.6384V59.7184L12.7 58.7504V68.5844ZM16 50.732H3.504V55.66H0.599999L0.599999 42.24H3.504V47.168H16V50.732ZM16 40.3224H0.599999V36.7584H16V40.3224ZM16.264 25.6237C16.264 26.841 16.066 27.9704 15.67 29.0117C15.274 30.0384 14.7167 30.933 13.998 31.6957C13.2793 32.4437 12.436 33.0304 11.468 33.4557C10.5 33.8664 9.444 34.0717 8.3 34.0717C7.156 34.0717 6.1 33.8664 5.132 33.4557C4.164 33.0304 3.32067 32.4364 2.602 31.6737C1.88333 30.911 1.326 30.0164 0.929999 28.9897C0.533999 27.963 0.336 26.8484 0.336 25.6457C0.336 24.4284 0.533999 23.3137 0.929999 22.3017C1.326 21.275 1.88333 20.3877 2.602 19.6397C3.32067 18.877 4.164 18.283 5.132 17.8577C6.08533 17.4324 7.14133 17.2197 8.3 17.2197C9.444 17.2197 10.5073 17.4324 11.49 17.8577C12.458 18.283 13.3013 18.877 14.02 19.6397C14.724 20.3877 15.274 21.275 15.67 22.3017C16.066 23.3137 16.264 24.421 16.264 25.6237ZM13.228 25.6457C13.228 24.9564 13.1107 24.3257 12.876 23.7537C12.6413 23.167 12.304 22.6537 11.864 22.2137C11.424 21.7737 10.9033 21.4364 10.302 21.2017C9.70067 20.9524 9.03333 20.8277 8.3 20.8277C7.56667 20.8277 6.89933 20.9524 6.298 21.2017C5.69667 21.4364 5.176 21.7737 4.736 22.2137C4.296 22.639 3.95867 23.145 3.724 23.7317C3.48933 24.3184 3.372 24.9564 3.372 25.6457C3.372 26.335 3.48933 26.973 3.724 27.5597C3.95867 28.1317 4.296 28.6377 4.736 29.0777C5.176 29.5177 5.69667 29.8624 6.298 30.1117C6.89933 30.3464 7.56667 30.4637 8.3 30.4637C9.01867 30.4637 9.686 30.3464 10.302 30.1117C10.9033 29.8624 11.424 29.525 11.864 29.0997C12.304 28.6597 12.6413 28.1464 12.876 27.5597C13.1107 26.973 13.228 26.335 13.228 25.6457ZM16 14.5412H0.599999V11.5932L11.688 2.50719V3.93719H0.599999V0.417187H16V3.34319L4.912 12.4512V11.0212H16L16 14.5412Z" fill="white"/>
</svg>
