<svg width="38" height="38" viewBox="0 0 38 38" fill="none" xmlns="http://www.w3.org/2000/svg">
<path d="M30.0834 6.33325H7.91675C6.65697 6.33325 5.44879 6.8337 4.55799 7.72449C3.66719 8.61529 3.16675 9.82347 3.16675 11.0833V26.9166C3.16675 28.1764 3.66719 29.3845 4.55799 30.2753C5.44879 31.1661 6.65697 31.6666 7.91675 31.6666H30.0834C31.3432 31.6666 32.5514 31.1661 33.4422 30.2753C34.333 29.3845 34.8334 28.1764 34.8334 26.9166V11.0833C34.8334 9.82347 34.333 8.61529 33.4422 7.72449C32.5514 6.8337 31.3432 6.33325 30.0834 6.33325ZM29.0226 9.49992L19.0001 17.0208L8.97758 9.49992H29.0226ZM30.0834 28.4999H7.91675C7.49682 28.4999 7.09409 28.3331 6.79716 28.0362C6.50023 27.7392 6.33341 27.3365 6.33341 26.9166V11.4791L18.0501 20.2666C18.3241 20.4721 18.6575 20.5833 19.0001 20.5833C19.3427 20.5833 19.676 20.4721 19.9501 20.2666L31.6667 11.4791V26.9166C31.6667 27.3365 31.4999 27.7392 31.203 28.0362C30.9061 28.3331 30.5033 28.4999 30.0834 28.4999Z" fill="white"/>
</svg>
