<svg width="27" height="27" viewBox="0 0 27 27" fill="none" xmlns="http://www.w3.org/2000/svg">
<path d="M27 19.1565C27 24.0705 24.0705 27 19.1565 27H17.55C16.8075 27 16.2 26.3925 16.2 25.65V17.8605C16.2 17.496 16.497 17.1855 16.8615 17.1855L19.2375 17.145C19.4265 17.1315 19.5885 16.9965 19.629 16.8075L20.1015 14.229C20.142 13.986 19.953 13.7565 19.6965 13.7565L16.821 13.797C16.443 13.797 16.146 13.5 16.1325 13.1355L16.0785 9.828C16.0785 9.612 16.254 9.42301 16.4835 9.42301L19.7235 9.369C19.953 9.369 20.1285 9.19351 20.1285 8.96401L20.0745 5.72399C20.0745 5.49449 19.899 5.319 19.6695 5.319L16.0245 5.37301C13.7835 5.41351 12.0015 7.2495 12.042 9.4905L12.1095 13.203C12.123 13.581 11.826 13.878 11.448 13.8915L9.828 13.9185C9.5985 13.9185 9.42301 14.094 9.42301 14.3235L9.46351 16.8885C9.46351 17.118 9.639 17.2935 9.8685 17.2935L11.4885 17.2665C11.8665 17.2665 12.1635 17.5635 12.177 17.928L12.2985 25.623C12.312 26.379 11.7045 27 10.9485 27H7.8435C2.9295 27 0 24.0705 0 19.143V7.8435C0 2.9295 2.9295 0 7.8435 0H19.1565C24.0705 0 27 2.9295 27 7.8435V19.1565Z" fill="white"/>
</svg>
