<svg width="29" height="29" viewBox="0 0 29 29" fill="none" xmlns="http://www.w3.org/2000/svg">
<path d="M20.2643 2H8.73571C5.0157 2 2 5.0157 2 8.73571V20.2643C2 23.9843 5.0157 27 8.73571 27H20.2643C23.9843 27 27 23.9843 27 20.2643V8.73571C27.0001 5.0157 23.9844 2 20.2643 2Z" stroke="white" stroke-width="3.11667" stroke-miterlimit="10"/>
<path d="M14.5001 20.069C17.8328 20.069 20.5346 17.3673 20.5346 14.0345C20.5346 10.7017 17.8328 8 14.5001 8C11.1673 8 8.46558 10.7017 8.46558 14.0345C8.46558 17.3673 11.1673 20.069 14.5001 20.069Z" stroke="white" stroke-width="3.11667" stroke-miterlimit="10"/>
<path d="M21.8275 8.46563C22.5417 8.46563 23.1207 7.88668 23.1207 7.17251C23.1207 6.45834 22.5417 5.87939 21.8275 5.87939C21.1134 5.87939 20.5344 6.45834 20.5344 7.17251C20.5344 7.88668 21.1134 8.46563 21.8275 8.46563Z" fill="white"/>
</svg>
