<svg width="25" height="25" viewBox="0 0 25 25" fill="none" xmlns="http://www.w3.org/2000/svg">
<path d="M18.7501 15.625C17.9317 15.6257 17.1463 15.9473 16.5626 16.5208L8.33339 12.8542C8.33339 12.7292 8.33339 12.625 8.33339 12.5C8.33339 12.375 8.33339 12.2708 8.33339 12.1563L16.5626 8.47917C17.078 8.9844 17.7524 9.29563 18.4713 9.36001C19.1902 9.4244 19.9092 9.23796 20.5062 8.83236C21.1032 8.42677 21.5414 7.82702 21.7464 7.13499C21.9514 6.44296 21.9105 5.70131 21.6307 5.036C21.3509 4.37069 20.8494 3.82274 20.2114 3.48522C19.5735 3.1477 18.8383 3.04142 18.1309 3.18443C17.4234 3.32743 16.7873 3.71091 16.3305 4.26973C15.8737 4.82855 15.6245 5.52825 15.6251 6.25V6.60417L7.39589 10.2708C6.95668 9.83933 6.39979 9.54718 5.79512 9.43107C5.19046 9.31496 4.56497 9.38006 3.99717 9.6182C3.42937 9.85633 2.94457 10.2569 2.60364 10.7696C2.2627 11.2823 2.08081 11.8843 2.08081 12.5C2.08081 13.1157 2.2627 13.7177 2.60364 14.2304C2.94457 14.7431 3.42937 15.1437 3.99717 15.3818C4.56497 15.6199 5.19046 15.685 5.79512 15.5689C6.39979 15.4528 6.95668 15.1607 7.39589 14.7292L15.6251 18.4063V18.75C15.6251 19.3681 15.8083 19.9723 16.1517 20.4862C16.4951 21.0001 16.9831 21.4006 17.5542 21.6371C18.1252 21.8736 18.7535 21.9355 19.3597 21.815C19.9659 21.6944 20.5227 21.3967 20.9598 20.9597C21.3968 20.5227 21.6944 19.9659 21.815 19.3597C21.9356 18.7535 21.8737 18.1251 21.6372 17.5541C21.4007 16.9831 21.0001 16.495 20.4862 16.1517C19.9723 15.8083 19.3681 15.625 18.7501 15.625Z" fill="#291E3E"/>
</svg>
